# xmcd
#
# Track frame offsets:
#	150
#	20799
#	46456
#	78479
#	96931
#	114251
#	136976
#	174554
#	213512
#	249904
#
# Disc length: 3728 seconds
#
# Revision: 1
# Processed by: cddbd v1.5.1PL2 Copyright (c) Steve Scherf et al.
# Submitted via: EasyCDDAExtractor 9.0.0.1
#
DISCID=840e8e0a
DTITLE=The Sweet - Massey Hall Toronto 08-02-76
DYEAR=1976
DGENRE=Hard Rock
TTITLE0=The Ballrom Blitz 
TTITLE1=The Six Teens
TTITLE2=Restless 
TTITLE3=No You Don't
TTITLE4=Fox On The Run 
TTITLE5=Born On The Flame
TTITLE6=Set Me Free
TTITLE7=Man With The Golden Arm
TTITLE8=Action and AC/DC
TTITLE9=Sweet FA
EXTD=
EXTT0=
EXTT1=
EXTT2=
EXTT3=
EXTT4=
EXTT5=
EXTT6=
EXTT7=
EXTT8=
EXTT9=
PLAYORDER=
